<?xml version="1.0" encoding="UTF-8"?><svg id="Layer_1" xmlns="http://www.w3.org/2000/svg" viewBox="0 0 20 20"><defs><style>.cls-1{fill:#fff;}</style></defs><circle class="cls-1" cx="15.32" cy="4.7" r="1.22"/><path class="cls-1" d="m10,4.85c-2.84,0-5.15,2.31-5.15,5.15s2.31,5.15,5.15,5.15,5.15-2.31,5.15-5.15-2.31-5.15-5.15-5.15Zm0,8.13c-1.64,0-2.97-1.33-2.97-2.98s1.33-2.97,2.97-2.97,2.97,1.33,2.97,2.97c0,1.64-1.33,2.98-2.97,2.98Z"/><path class="cls-1" d="m14.95,0H5.05C2.26,0,0,2.26,0,5.05v9.91c0,2.78,2.26,5.05,5.05,5.05h9.91c2.78,0,5.05-2.26,5.05-5.05h0V5.05c0-2.78-2.26-5.05-5.05-5.05Zm2.87,14.95c0,1.58-1.29,2.87-2.87,2.87H5.05c-1.58,0-2.87-1.29-2.87-2.87V5.05c0-1.58,1.29-2.87,2.87-2.87h9.91c1.58,0,2.87,1.29,2.87,2.87v9.91Z"/></svg>