<?xml version="1.0" encoding="utf-8"?>
<!-- Generator: Adobe Illustrator 23.0.3, SVG Export Plug-In . SVG Version: 6.00 Build 0)  -->
<svg version="1.1" id="Layer_1" xmlns="http://www.w3.org/2000/svg" xmlns:xlink="http://www.w3.org/1999/xlink" x="0px" y="0px"
	 viewBox="0 0 1345 450" style="enable-background:new 0 0 1345 450;" xml:space="preserve">
<style type="text/css">
	.st0{fill:#D8E8E4;}
	.st1{fill:#E34112;}
	.st2{fill:#080E2C;}
	.st3{fill:#44EABB;}
	.st4{fill:none;}
	.st5{font-family:'PlutoSansRegular';}
	.st6{font-size:100px;}
	.st7{letter-spacing:12;}
</style>
<rect class="st0" width="1345" height="450"/>
<polygon class="st1" points="429,415.3 1345,415.3 1345,0 1129,183 429,183 "/>
<path class="st2" d="M0,175c112.3-34.5,276.2-64,439,0c105,41.3,143.9,95.6,217,138c115.7,67,317,103.9,689-58c0,65,0,130,0,195
	c-448.3,0-896.7,0-1345,0C0,358.3,0,266.7,0,175z"/>
<path class="st3" d="M863,0c-33.2,33.8-94.3,87.5-186,125c-96,39.3-153,45-219,58c82,30,197.5,65.3,364,67
	c259,2.6,447.4-106.3,523-156c0-31.3,0-62.7,0-94C1184.3,0,1023.7,0,863,0z"/>
<rect x="49.9" y="209.8" class="st4" width="593.1" height="190.7"/>
<text transform="matrix(1 0 0 1 49.8773 280.7787)"><tspan x="0" y="0" class="st0 st5 st6">Vector</tspan><tspan x="0" y="100" class="st0 st5 st6 st7">			</tspan><tspan x="108" y="100" class="st0 st5 st6">Graphics</tspan></text>
<path class="st1" d="M173,101c147.5-20.2,262.5,64.4,285,82c-45.3-15.8-110.2-34.2-180-40C159,133,61.4,155.4,0,175
	C28.9,152.4,88.4,112.6,173,101z"/>
</svg>
